<!DOCTYPE svg PUBLIC "-//W3C//DTD SVG 1.1//EN" "http://www.w3.org/Graphics/SVG/1.1/DTD/svg11.dtd">
<!-- Uploaded to: SVG Repo, www.svgrepo.com, Transformed by: SVG Repo Mixer Tools -->
<svg fill="#105b99" width="800px" height="800px" viewBox="0 0 100 100" data-name="Layer 1" id="Layer_1" xmlns="http://www.w3.org/2000/svg" stroke="#105b99">
<g id="SVGRepo_bgCarrier" stroke-width="0"/>
<g id="SVGRepo_tracerCarrier" stroke-linecap="round" stroke-linejoin="round"/>
<g id="SVGRepo_iconCarrier">
<path d="M79.36,84.05a1.32,1.32,0,0,0,.34,0,1.25,1.25,0,0,0,1.2-.92,9.54,9.54,0,0,0-1.62-7.85c-2.61-3.42-7.64-5.16-14.94-5.16a1.27,1.27,0,0,0-.9.38,17.27,17.27,0,0,1-25,0,1.27,1.27,0,0,0-.9-.38c-7.3,0-12.33,1.74-14.94,5.16A9.54,9.54,0,0,0,21,83.17a1.23,1.23,0,0,0,1.53.87,1.25,1.25,0,0,0,.88-1.53,7,7,0,0,1,1.23-5.71c2-2.63,6.31-4.06,12.41-4.13a19.76,19.76,0,0,0,27.79,0c6.1.07,10.38,1.5,12.42,4.13a7,7,0,0,1,1.22,5.71A1.26,1.26,0,0,0,79.36,84.05Z"/>
<path d="M57.7,44.71a2.14,2.14,0,1,0,2.07,2.14A2.1,2.1,0,0,0,57.7,44.71Z"/>
<path d="M44.21,44.71a2.14,2.14,0,1,0,2.08,2.14A2.1,2.1,0,0,0,44.21,44.71Z"/>
<path d="M76,37.37a29.77,29.77,0,0,1-4,1.44l-.16-.05C69.78,26.89,61.3,18.69,51,18.69s-18.83,8.2-20.9,20.07A5.79,5.79,0,0,0,30,50C32.15,62.72,41,72.18,51,72.18S69.77,62.72,71.87,50a5.55,5.55,0,0,0,4.4-5.62,5.94,5.94,0,0,0-1.41-3.87c.72-.26,1.44-.53,2.18-.85a1.25,1.25,0,0,0-1-2.3Zm-15.68,17-1.47-1.55a1.07,1.07,0,0,0-.41-.28,19,19,0,0,0-15,0,1.07,1.07,0,0,0-.41.28l-1.47,1.55L32.89,40.86a16.5,16.5,0,0,0,5.21-2.22l-.45,2.09a1.25,1.25,0,0,0,.52,1.3,1.23,1.23,0,0,0,.7.22,1.32,1.32,0,0,0,.71-.22l8.79-6a26.74,26.74,0,0,0,19.88,6ZM51,21.19c9.15,0,16.64,7.45,18.45,18.2a23.48,23.48,0,0,1-20-5.81,1.25,1.25,0,0,0-1.6-.16l-7,4.79.65-3.05a1.25,1.25,0,0,0-2.25-1,11.37,11.37,0,0,1-6.46,4.13C34.81,28.14,42.11,21.19,51,21.19ZM32.36,48.62a1.26,1.26,0,0,0-1.24-1.08H31a.58.58,0,0,0-.19,0,3,3,0,0,1-2.68-3.19A3.12,3.12,0,0,1,30.2,41.3L40,56.58,38.38,63A28.75,28.75,0,0,1,32.36,48.62Zm8,16.58L42.49,57l2.16-2.28a16.59,16.59,0,0,1,12.61,0L59.42,57,61.5,65.2A15.63,15.63,0,0,1,51,69.68,15.63,15.63,0,0,1,40.41,65.2ZM73.77,44.39a3,3,0,0,1-2.66,3.18h0l-.2,0a1.24,1.24,0,0,0-1.35,1.07,28.79,28.79,0,0,1-6,14.41L61.9,56.58l9.69-15.09.38-.1A3.21,3.21,0,0,1,73.77,44.39Z"/>
<path d="M54.35,56.18l-1.59-.69a4.62,4.62,0,0,0-3.61,0l-1.59.69a1.25,1.25,0,0,0-.65,1.64,1.24,1.24,0,0,0,1.64.65l1.6-.68a2,2,0,0,1,1.61,0l1.6.68a1.25,1.25,0,1,0,1-2.29Z"/>
<path d="M78,60.38a.88.88,0,0,0-.07-.23,1.51,1.51,0,0,0-.11-.22,1.46,1.46,0,0,0-.16-.19,1.26,1.26,0,0,0-1.12-.34l-.24.07a.88.88,0,0,0-.21.12,1,1,0,0,0-.2.15,1.39,1.39,0,0,0-.15.19,1.21,1.21,0,0,0-.19.45,2,2,0,0,0,0,.25,1.27,1.27,0,0,0,.09.47,1.46,1.46,0,0,0,.27.41,1.26,1.26,0,0,0,.89.37,1.29,1.29,0,0,0,.48-.1,1.09,1.09,0,0,0,.4-.27,1.13,1.13,0,0,0,.27-.41,1.1,1.1,0,0,0,.1-.47A1,1,0,0,0,78,60.38Z"/>
<path d="M76.54,65l-.23.07a.94.94,0,0,0-.22.12,1.25,1.25,0,0,0-.19.15,1.28,1.28,0,0,0-.27,1.36,1.46,1.46,0,0,0,.27.41,1.24,1.24,0,0,0,.89.37,1.22,1.22,0,0,0,.88-.37,1.3,1.3,0,0,0,.28-.41A1.26,1.26,0,0,0,76.54,65Z"/>
<path d="M79.56,64.65a1.26,1.26,0,0,0,1.16-.77,1.28,1.28,0,0,0,.09-.48,1,1,0,0,0,0-.24,2.17,2.17,0,0,0-.07-.24.88.88,0,0,0-.12-.21,1,1,0,0,0-.15-.19l-.19-.16L80,62.25a.9.9,0,0,0-.23-.08,1.27,1.27,0,0,0-1.13.35,1,1,0,0,0-.16.19,1.39,1.39,0,0,0-.11.21,1.09,1.09,0,0,0-.07.24,1,1,0,0,0,0,.24,1.29,1.29,0,0,0,.1.48,1.09,1.09,0,0,0,.27.4A1.23,1.23,0,0,0,79.56,64.65Z"/>
<path d="M75.05,62.71a.7.7,0,0,0-.15-.19,1.3,1.3,0,0,0-1.13-.35.9.9,0,0,0-.23.08,1.51,1.51,0,0,0-.22.11l-.19.16a1,1,0,0,0-.16.19,1.39,1.39,0,0,0-.11.21,2.17,2.17,0,0,0-.07.24,1,1,0,0,0,0,.24,1.29,1.29,0,0,0,.1.48,1.09,1.09,0,0,0,.27.4,1.24,1.24,0,0,0,1.77,0,1.09,1.09,0,0,0,.27-.4,1.29,1.29,0,0,0,.1-.48,1,1,0,0,0,0-.24,2.17,2.17,0,0,0-.07-.24A.88.88,0,0,0,75.05,62.71Z"/>
<path d="M21.24,31.61a1.22,1.22,0,0,0,.88.37,1.29,1.29,0,0,0,.48-.1,1.22,1.22,0,0,0,.41-.27,1.46,1.46,0,0,0,.27-.41,1.27,1.27,0,0,0,.09-.47,1.29,1.29,0,0,0-.36-.89,1.25,1.25,0,0,0-.19-.15,1.19,1.19,0,0,0-.22-.12l-.23-.07a1.25,1.25,0,0,0-1.5,1.23,1.1,1.1,0,0,0,.1.47A1.13,1.13,0,0,0,21.24,31.61Z"/>
<path d="M21.24,37.16a1.18,1.18,0,0,0,.4.27,1.33,1.33,0,0,0,.48.1,1.24,1.24,0,0,0,.89-.37,1.27,1.27,0,0,0,.36-.88,2,2,0,0,0,0-.25,1.21,1.21,0,0,0-.19-.45,1.39,1.39,0,0,0-.15-.19,1.31,1.31,0,0,0-1.77,0,1.46,1.46,0,0,0-.16.19,1.51,1.51,0,0,0-.11.22.88.88,0,0,0-.07.23,1,1,0,0,0,0,.25A1.22,1.22,0,0,0,21.24,37.16Z"/>
<path d="M26.05,33a1.39,1.39,0,0,0-.11-.21,1,1,0,0,0-.16-.19l-.19-.16-.21-.11a1.13,1.13,0,0,0-.24-.08,1.28,1.28,0,0,0-1.13.35,1.25,1.25,0,0,0-.36.88,1.28,1.28,0,0,0,.09.48,1.26,1.26,0,0,0,1.16.77,1.36,1.36,0,0,0,.48-.09,1.38,1.38,0,0,0,.4-.28,1.09,1.09,0,0,0,.27-.4,1.12,1.12,0,0,0,.1-.48,1,1,0,0,0,0-.24A1.09,1.09,0,0,0,26.05,33Z"/>
<path d="M20.39,32.81a1,1,0,0,0-.16-.19L20,32.46l-.21-.11a1.13,1.13,0,0,0-.24-.08,1.35,1.35,0,0,0-.49,0,.9.9,0,0,0-.23.08l-.22.11-.19.16a1,1,0,0,0-.15.19.88.88,0,0,0-.12.21,2.17,2.17,0,0,0-.07.24,1.94,1.94,0,0,0,0,.24,1.28,1.28,0,0,0,.09.48,1.26,1.26,0,0,0,1.16.77,1.36,1.36,0,0,0,.48-.09,1.38,1.38,0,0,0,.4-.28,1.09,1.09,0,0,0,.27-.4,1.12,1.12,0,0,0,.1-.48,1,1,0,0,0,0-.24A1.09,1.09,0,0,0,20.5,33,1.39,1.39,0,0,0,20.39,32.81Z"/>
</g>
</svg>